<svg width="130" height="130" viewBox="0 0 130 130" fill="none" xmlns="http://www.w3.org/2000/svg">
<circle cx="65" cy="65" r="65" fill="#EB494E"/>
<g clip-path="url(#clip0_1412_16069)">
<path d="M95.8084 57.8584C95.0223 54.437 93.6919 51.2178 91.8401 48.2565L94.6104 43.6987L86.3013 35.3897L81.7434 38.16C78.782 36.3083 75.5628 34.9777 72.1418 34.1916L70.8755 29H59.1245L57.8582 34.1916C54.4372 34.9777 51.2179 36.3081 48.2566 38.16L43.6987 35.3897L35.3896 43.6987L38.1599 48.2565C36.3081 51.2178 34.9777 54.437 34.1916 57.8584L29 59.1245V70.8755L34.1916 72.1416C34.9777 75.5629 36.3081 78.7821 38.1599 81.7434L35.3897 86.3012L43.6987 94.6104L48.2565 91.84C51.2178 93.6917 54.437 95.0222 57.8582 95.8084L59.1245 101H70.8755L72.1418 95.8085C75.563 95.0223 78.7824 93.6919 81.7435 91.8401L86.3013 94.6106L94.6103 86.3013L91.8401 81.7435C93.6919 78.7821 95.0223 75.563 95.8084 72.1418L101 70.8756V59.1247L95.8084 57.8584ZM65 86.0938C53.3502 86.0938 43.9062 76.6498 43.9062 65C43.9062 53.3502 53.3502 43.9062 65 43.9062C76.6498 43.9062 86.0938 53.3502 86.0938 65C86.0938 76.6498 76.6498 86.0938 65 86.0938Z" fill="white"/>
<path d="M65 65C65 59.9599 60.8995 55.8594 55.8594 55.8594H53.0469V58.6719C53.0469 63.712 57.1474 67.8125 62.1875 67.8125H62.8906V77.6562H67.1094V67.8125H67.8125C72.8526 67.8125 76.9531 63.712 76.9531 58.6719V55.8594H74.1406C69.1005 55.8594 65 59.9599 65 65Z" fill="black"/>
</g>
<defs>
<clipPath id="clip0_1412_16069">
<rect width="72" height="72" fill="white" transform="translate(29 29)"/>
</clipPath>
</defs>
</svg>
