<svg width="130" height="130" viewBox="0 0 130 130" fill="none" xmlns="http://www.w3.org/2000/svg">
<circle cx="65" cy="65" r="65" fill="#EB494E"/>
<path d="M96.5 63.875C96.5 65.738 94.988 67.25 93.125 67.25H36.875C35.012 67.25 33.5 65.738 33.5 63.875C33.5 62.012 35.012 60.5 36.875 60.5H38.3892C39.8697 51.716 45.596 44.3855 53.3877 40.6595L54.0763 47.7245C54.1663 48.6515 54.974 49.349 55.919 49.241C56.846 49.151 57.5255 48.3275 57.4355 47.4005L56.2632 35.354C56.1642 34.3482 56.954 33.5 57.9417 33.5H72.056C73.0438 33.5 73.8335 34.3482 73.7367 35.3517L72.5645 47.3983C72.4745 48.3252 73.154 49.1487 74.081 49.2387C74.1372 49.2477 74.1912 49.25 74.2452 49.25C75.1025 49.25 75.8382 48.5975 75.9237 47.7245L76.6122 40.6595C84.404 44.3833 90.1302 51.7138 91.6107 60.5H93.125C94.988 60.5 96.5 62.012 96.5 63.875Z" fill="white"/>
<path d="M95.375 76.25H92C92 73.7682 89.9818 71.75 87.5 71.75H42.5C40.0182 71.75 38 73.7682 38 76.25H34.625C34.004 76.25 33.5 76.754 33.5 77.375V81.875C33.5 82.496 34.004 83 34.625 83H38V87.5C38 88.0985 38.2363 88.67 38.6593 89.0908L43.1593 93.5908C43.58 94.0138 44.1538 94.25 44.75 94.25H58.25C59.0015 94.25 59.7035 93.8743 60.122 93.2488C61.7915 90.749 63.9875 88.2177 65 87.5877C66.0125 88.2155 68.2085 90.7467 69.878 93.2488C70.2965 93.8743 70.9985 94.25 71.75 94.25H85.25C85.8462 94.25 86.42 94.0138 86.8408 93.5908L91.3408 89.0908C91.7638 88.67 92 88.0985 92 87.5V83H95.375C95.996 83 96.5 82.496 96.5 81.875V77.375C96.5 76.754 95.996 76.25 95.375 76.25ZM87.5 86.5685L84.3185 89.75H72.938C70.634 86.4672 67.5897 83 65 83C62.4102 83 59.366 86.4672 57.062 89.75H45.6815L42.5 86.5685L42.4978 76.25H87.5V86.5685Z" fill="black"/>
</svg>
