<svg width="130" height="130" viewBox="0 0 130 130" fill="none" xmlns="http://www.w3.org/2000/svg">
<circle cx="65" cy="65" r="65" fill="#EB494E"/>
<path d="M98.8906 86.0938H29V90.3125C29 91.4774 29.9444 92.4219 31.1094 92.4219H98.8906C100.056 92.4219 101 91.4774 101 90.3125V88.2031C101 87.0382 100.056 86.0938 98.8906 86.0938Z" fill="black"/>
<path d="M31.1094 41.7969H40.953C42.1179 41.7969 43.0624 40.8524 43.0624 39.6875C43.0624 38.5226 42.1179 37.5781 40.953 37.5781H31.1094C29.9444 37.5781 29 38.5226 29 39.6875C29 40.8524 29.9444 41.7969 31.1094 41.7969Z" fill="white"/>
<path d="M49.6318 41.7969H53.8506C55.0155 41.7969 55.96 40.8524 55.96 39.6875C55.96 38.5226 55.0155 37.5781 53.8506 37.5781H49.6318C48.4669 37.5781 47.5225 38.5226 47.5225 39.6875C47.5225 40.8524 48.4669 41.7969 49.6318 41.7969Z" fill="white"/>
<path d="M87.6406 50.2344H98.8906C100.056 50.2344 101 49.2899 101 48.125C101 46.9601 100.056 46.0156 98.8906 46.0156H87.6406C86.4757 46.0156 85.5312 46.9601 85.5312 48.125C85.5312 49.2899 86.4757 50.2344 87.6406 50.2344Z" fill="white"/>
<path d="M91.1562 41.7969H95.375C96.5399 41.7969 97.4844 40.8524 97.4844 39.6875C97.4844 38.5226 96.5399 37.5781 95.375 37.5781H91.1562C89.9913 37.5781 89.0469 38.5226 89.0469 39.6875C89.0469 40.8524 89.9913 41.7969 91.1562 41.7969Z" fill="white"/>
<path d="M29 56.5625H36.0312V65H29V56.5625Z" fill="white"/>
<path d="M48.6875 56.5625H55.7188V65H48.6875V56.5625Z" fill="white"/>
<path d="M68.375 56.5625V65H94.2129L86.7128 56.5625H68.375Z" fill="white"/>
<path d="M97.9629 69.2188H66.2656C65.1007 69.2188 64.1562 68.2743 64.1562 67.1094V54.4531C64.1562 53.2882 65.1007 52.3438 66.2656 52.3438H82.9627L81.3235 50.4996C78.7907 47.65 75.1514 46.0156 71.3387 46.0156H31.1094C29.9444 46.0156 29 46.9601 29 48.125V52.3438H38.1406C39.3056 52.3438 40.25 53.2882 40.25 54.4531V67.1094C40.25 68.2743 39.3056 69.2188 38.1406 69.2188H29V81.875H94.3057C98.0029 81.875 101 78.8779 101 75.1807C101 73.5411 100.398 71.9585 99.3091 70.7333L97.9629 69.2188ZM59.9375 67.1094C59.9375 68.2743 58.9931 69.2188 57.8281 69.2188H46.5781C45.4132 69.2188 44.4688 68.2743 44.4688 67.1094V54.4531C44.4688 53.2882 45.4132 52.3438 46.5781 52.3438H57.8281C58.9931 52.3438 59.9375 53.2882 59.9375 54.4531V67.1094Z" fill="white"/>
</svg>
